<mxfile host="Electron" agent="Mozilla/5.0 (Windows NT 10.0; Win64; x64) AppleWebKit/537.36 (KHTML, like Gecko) draw.io/28.2.5 Chrome/138.0.7204.251 Electron/37.6.1 Safari/537.36" version="28.2.5">
  <diagram name="Page-1" id="aaaa8250-4180-3840-79b5-4cada1eebb92">
    <mxGraphModel dx="1223" dy="781" grid="1" gridSize="10" guides="1" tooltips="1" connect="1" arrows="1" fold="1" page="1" pageScale="1" pageWidth="850" pageHeight="1100" background="none" math="0" shadow="0">
      <root>
        <mxCell id="0" />
        <mxCell id="1" parent="0" />
        <mxCell id="rxPMCwID-vaZJ7fcNi88-3" value="" style="whiteSpace=wrap;html=1;" vertex="1" parent="1">
          <mxGeometry x="50" y="210" width="685" height="220" as="geometry" />
        </mxCell>
        <mxCell id="M_QHoluWBeuM_HqIinLl-28" style="edgeStyle=orthogonalEdgeStyle;rounded=0;orthogonalLoop=1;jettySize=auto;html=1;flowAnimation=1;fontFamily=Times New Roman;fontSize=14;" parent="1" edge="1">
          <mxGeometry relative="1" as="geometry">
            <mxPoint x="410" y="308.59999999999997" as="targetPoint" />
            <mxPoint x="310" y="308.59999999999997" as="sourcePoint" />
          </mxGeometry>
        </mxCell>
        <mxCell id="dRUmLWO6tAiu00GdCcpR-14" value="&lt;p dir=&quot;auto&quot; style=&quot;white-space: pre-wrap;&quot;&gt;Trigger&lt;/p&gt;" style="edgeLabel;html=1;align=center;verticalAlign=middle;resizable=0;points=[];fontFamily=Times New Roman;fontSize=14;" parent="M_QHoluWBeuM_HqIinLl-28" vertex="1" connectable="0">
          <mxGeometry x="-0.44" y="-1" relative="1" as="geometry">
            <mxPoint x="22" y="-3" as="offset" />
          </mxGeometry>
        </mxCell>
        <mxCell id="M_QHoluWBeuM_HqIinLl-29" style="edgeStyle=orthogonalEdgeStyle;rounded=0;orthogonalLoop=1;jettySize=auto;html=1;flowAnimation=1;fontFamily=Times New Roman;fontSize=14;" parent="1" edge="1">
          <mxGeometry relative="1" as="geometry">
            <mxPoint x="610" y="308.6380952380952" as="targetPoint" />
            <mxPoint x="520" y="308.6" as="sourcePoint" />
          </mxGeometry>
        </mxCell>
        <mxCell id="M_QHoluWBeuM_HqIinLl-24" value="" style="endArrow=classic;html=1;rounded=0;flowAnimation=1;fontFamily=Times New Roman;fontSize=14;" parent="1" edge="1">
          <mxGeometry width="50" height="50" relative="1" as="geometry">
            <mxPoint x="345" y="494.9800000000001" as="sourcePoint" />
            <mxPoint x="155" y="494.50000000000006" as="targetPoint" />
          </mxGeometry>
        </mxCell>
        <mxCell id="M_QHoluWBeuM_HqIinLl-26" style="edgeStyle=orthogonalEdgeStyle;rounded=0;orthogonalLoop=1;jettySize=auto;html=1;entryX=0;entryY=0.5;entryDx=0;entryDy=0;entryPerimeter=0;flowAnimation=1;fontFamily=Times New Roman;fontSize=14;" parent="1" edge="1">
          <mxGeometry relative="1" as="geometry">
            <Array as="points">
              <mxPoint x="100" y="305" />
            </Array>
            <mxPoint x="100" y="460" as="sourcePoint" />
            <mxPoint x="200" y="305.5" as="targetPoint" />
          </mxGeometry>
        </mxCell>
        <mxCell id="M_QHoluWBeuM_HqIinLl-27" value="AWS CLI &#xa;File Transfer" style="edgeLabel;html=1;align=center;verticalAlign=middle;resizable=0;points=[];spacing=-1;spacingTop=-4;fontFamily=Times New Roman;fontSize=14;" parent="M_QHoluWBeuM_HqIinLl-26" vertex="1" connectable="0">
          <mxGeometry x="-0.1179" y="-1" relative="1" as="geometry">
            <mxPoint x="-1" y="30" as="offset" />
          </mxGeometry>
        </mxCell>
        <mxCell id="dRUmLWO6tAiu00GdCcpR-6" value="" style="html=1;verticalLabelPosition=bottom;align=center;labelBackgroundColor=#ffffff;verticalAlign=top;strokeWidth=2;strokeColor=#0080F0;shadow=0;dashed=0;shape=mxgraph.ios7.icons.data;fontFamily=Times New Roman;fontSize=14;" parent="1" vertex="1">
          <mxGeometry x="630" y="260" width="80" height="80" as="geometry" />
        </mxCell>
        <mxCell id="dRUmLWO6tAiu00GdCcpR-7" value="File Systems" style="text;whiteSpace=wrap;fontStyle=1;spacing=4;spacingTop=-5;fontFamily=Times New Roman;fontSize=14;" parent="1" vertex="1">
          <mxGeometry x="360" y="522" width="84" height="30" as="geometry" />
        </mxCell>
        <mxCell id="dRUmLWO6tAiu00GdCcpR-8" value="" style="sketch=0;outlineConnect=0;fontColor=#232F3E;gradientColor=none;fillColor=#000000;strokeColor=none;dashed=0;verticalLabelPosition=bottom;verticalAlign=top;align=center;html=1;fontSize=14;fontStyle=0;aspect=fixed;pointerEvents=1;shape=mxgraph.aws4.file_system;fontFamily=Times New Roman;" parent="1" vertex="1">
          <mxGeometry x="360" y="450" width="78" height="73" as="geometry" />
        </mxCell>
        <mxCell id="dRUmLWO6tAiu00GdCcpR-9" value="" style="image;aspect=fixed;html=1;points=[];align=center;fontSize=14;image=img/lib/azure2/general/Files.svg;fontFamily=Times New Roman;" parent="1" vertex="1">
          <mxGeometry x="81" y="460" width="64" height="70" as="geometry" />
        </mxCell>
        <mxCell id="dRUmLWO6tAiu00GdCcpR-10" value="Files" style="text;whiteSpace=wrap;spacing=-2;spacingTop=2;fontStyle=1;fontFamily=Times New Roman;fontSize=14;" parent="1" vertex="1">
          <mxGeometry x="108" y="528" width="36" height="20" as="geometry" />
        </mxCell>
        <mxCell id="dRUmLWO6tAiu00GdCcpR-12" value="" style="sketch=0;outlineConnect=0;fontColor=#232F3E;gradientColor=none;strokeColor=#ffffff;fillColor=#232F3E;dashed=0;verticalLabelPosition=middle;verticalAlign=bottom;align=center;html=1;whiteSpace=wrap;fontSize=14;fontStyle=1;spacing=3;shape=mxgraph.aws4.productIcon;prIcon=mxgraph.aws4.s3;fontFamily=Times New Roman;" parent="1" vertex="1">
          <mxGeometry x="220" y="260" width="82.5" height="71.35" as="geometry" />
        </mxCell>
        <mxCell id="dRUmLWO6tAiu00GdCcpR-13" value="Amazon S3" style="text;whiteSpace=wrap;html=1;fontStyle=1;align=center;fontFamily=Times New Roman;fontSize=14;" parent="1" vertex="1">
          <mxGeometry x="210" y="339.1" width="80" height="30" as="geometry" />
        </mxCell>
        <mxCell id="dRUmLWO6tAiu00GdCcpR-15" value="" style="sketch=0;outlineConnect=0;fontColor=#232F3E;gradientColor=none;strokeColor=#ffffff;fillColor=#232F3E;dashed=0;verticalLabelPosition=middle;verticalAlign=bottom;align=center;html=1;whiteSpace=wrap;fontSize=14;fontStyle=1;spacing=3;shape=mxgraph.aws4.productIcon;prIcon=mxgraph.aws4.lambda;fontFamily=Times New Roman;" parent="1" vertex="1">
          <mxGeometry x="425" y="260" width="85" height="90" as="geometry" />
        </mxCell>
        <mxCell id="dRUmLWO6tAiu00GdCcpR-16" value="&lt;b&gt;AWS Lambda&lt;br&gt;&lt;/b&gt;Node.JS&lt;br&gt;.Net CORE&lt;br&gt;Python" style="text;whiteSpace=wrap;html=1;align=center;fontFamily=Times New Roman;fontSize=13;" parent="1" vertex="1">
          <mxGeometry x="420" y="340" width="95" height="76.35" as="geometry" />
        </mxCell>
        <mxCell id="dRUmLWO6tAiu00GdCcpR-17" value="Dynamo" style="text;whiteSpace=wrap;html=1;fontStyle=1;fontFamily=Times New Roman;fontSize=14;" parent="1" vertex="1">
          <mxGeometry x="650" y="339.1" width="50" height="30" as="geometry" />
        </mxCell>
        <mxCell id="rxPMCwID-vaZJ7fcNi88-4" value="" style="outlineConnect=0;dashed=0;verticalLabelPosition=bottom;verticalAlign=top;align=center;html=1;shape=mxgraph.aws3.cloud_2;fillColor=#F58534;gradientColor=none;" vertex="1" parent="1">
          <mxGeometry x="50" y="210" width="50" height="50" as="geometry" />
        </mxCell>
        <mxCell id="rxPMCwID-vaZJ7fcNi88-5" value="&lt;font style=&quot;font-size: 15px;&quot; face=&quot;Verdana&quot;&gt;AWS Environment&lt;/font&gt;" style="text;html=1;align=center;verticalAlign=middle;resizable=0;points=[];autosize=1;strokeColor=none;fillColor=none;" vertex="1" parent="1">
          <mxGeometry x="97" y="216" width="160" height="30" as="geometry" />
        </mxCell>
      </root>
    </mxGraphModel>
  </diagram>
</mxfile>
